<svg width="25" height="25" viewBox="0 0 25 25" fill="none" xmlns="http://www.w3.org/2000/svg">
<path d="M12.2486 18.45C12.6073 18.45 12.9107 18.326 13.1588 18.0779C13.4068 17.8299 13.5305 17.5268 13.5298 17.1687C13.5291 16.8107 13.4054 16.5073 13.1588 16.2585C12.9121 16.0098 12.6087 15.8861 12.2486 15.8875C11.8884 15.8889 11.5854 16.0129 11.3394 16.2596C11.0934 16.5063 10.9694 16.8093 10.9673 17.1687C10.9653 17.5282 11.0893 17.8316 11.3394 18.0789C11.5895 18.3263 11.8925 18.45 12.2486 18.45ZM11.3261 14.5037H13.2223C13.2223 13.94 13.2865 13.4958 13.415 13.1712C13.5435 12.8467 13.9063 12.4025 14.5036 11.8387C14.9477 11.3946 15.2979 10.9716 15.5542 10.5698C15.8104 10.168 15.9386 9.68556 15.9386 9.12249C15.9386 8.16583 15.5883 7.43124 14.8879 6.91874C14.1875 6.40624 13.359 6.14999 12.4023 6.14999C11.4286 6.14999 10.6386 6.40624 10.0325 6.91874C9.42639 7.43124 9.00341 8.04624 8.76356 8.76374L10.4548 9.42999C10.5402 9.12249 10.7326 8.78937 11.0319 8.43062C11.3312 8.07187 11.788 7.89249 12.4023 7.89249C12.949 7.89249 13.359 8.04214 13.6323 8.34144C13.9056 8.64074 14.0423 8.96943 14.0423 9.32749C14.0423 9.66916 13.9398 9.98964 13.7348 10.2889C13.5298 10.5882 13.2736 10.8657 12.9661 11.1212C12.2144 11.7875 11.7531 12.2915 11.5823 12.6331C11.4115 12.9748 11.3261 13.5983 11.3261 14.5037ZM12.2998 22.55C10.8819 22.55 9.54939 22.2811 8.30231 21.7433C7.05522 21.2055 5.97043 20.4751 5.04793 19.5519C4.12543 18.6287 3.39529 17.5439 2.85751 16.2975C2.31972 15.0511 2.05049 13.7186 2.04981 12.3C2.04912 10.8814 2.31836 9.54889 2.85751 8.30249C3.39666 7.05609 4.1268 5.9713 5.04793 5.04812C5.96906 4.12493 7.05386 3.39479 8.30231 2.85769C9.55076 2.32059 10.8833 2.05136 12.2998 2.04999C13.7164 2.04863 15.0489 2.31786 16.2973 2.85769C17.5458 3.39753 18.6305 4.12767 19.5517 5.04812C20.4728 5.96857 21.2033 7.05336 21.7431 8.30249C22.283 9.55163 22.5519 10.8841 22.5498 12.3C22.5478 13.7159 22.2785 15.0484 21.7421 16.2975C21.2057 17.5466 20.4755 18.6314 19.5517 19.5519C18.6278 20.4723 17.543 21.2028 16.2973 21.7433C15.0516 22.2838 13.7191 22.5527 12.2998 22.55ZM12.2998 20.5C14.589 20.5 16.5279 19.7056 18.1167 18.1169C19.7054 16.5281 20.4998 14.5892 20.4998 12.3C20.4998 10.0108 19.7054 8.07187 18.1167 6.48312C16.5279 4.89437 14.589 4.09999 12.2998 4.09999C10.0106 4.09999 8.07168 4.89437 6.48293 6.48312C4.89418 8.07187 4.09981 10.0108 4.09981 12.3C4.09981 14.5892 4.89418 16.5281 6.48293 18.1169C8.07168 19.7056 10.0106 20.5 12.2998 20.5Z" fill="black" fill-opacity="0.6"/>
</svg>
