<svg width="25" height="25" viewBox="0 0 25 25" fill="none" xmlns="http://www.w3.org/2000/svg">
<path d="M4.22777 20.9583H20.3715C22.5231 20.9583 23.6047 19.8983 23.6047 17.7775V6.83309C23.6047 4.71221 22.5231 3.64124 20.3715 3.64124H4.22777C2.07615 3.64124 0.994629 4.71221 0.994629 6.83309V17.7775C0.994629 19.8983 2.07571 20.9583 4.22777 20.9583ZM2.65249 6.92621C2.65249 5.85524 3.22928 5.29954 4.25852 5.29954H20.3509C21.37 5.29954 21.9468 5.85524 21.9468 6.92621V7.79073H2.65249V6.92621ZM4.25852 19.3018C3.22884 19.3018 2.65249 18.7557 2.65249 17.6852V10.1277H21.9468V17.6848C21.9468 18.7553 21.37 19.3013 20.3509 19.3013L4.25852 19.3018ZM5.4424 16.2536H7.96521C8.57275 16.2536 8.97425 15.8521 8.97425 15.2652V13.3604C8.97425 12.7841 8.57275 12.372 7.96521 12.372H5.4424C4.83486 12.372 4.43336 12.7841 4.43336 13.3604V15.2652C4.43336 15.8521 4.83486 16.2536 5.4424 16.2536Z" fill="black"/>
</svg>
