<svg width="25" height="25" viewBox="0 0 25 25" fill="none" xmlns="http://www.w3.org/2000/svg">
<path d="M12.3001 17.425C12.5905 17.425 12.8341 17.3266 13.0309 17.1298C13.2277 16.933 13.3258 16.6897 13.3251 16.4V12.3C13.3251 12.0096 13.2267 11.7663 13.0299 11.5702C12.8331 11.3741 12.5898 11.2757 12.3001 11.275C12.0104 11.2743 11.7671 11.3727 11.5703 11.5702C11.3735 11.7677 11.2751 12.0109 11.2751 12.3V16.4C11.2751 16.6904 11.3735 16.934 11.5703 17.1308C11.7671 17.3276 12.0104 17.4257 12.3001 17.425ZM12.3001 9.22499C12.5905 9.22499 12.8341 9.12659 13.0309 8.92978C13.2277 8.73299 13.3258 8.48972 13.3251 8.19999C13.3244 7.91025 13.226 7.66699 13.0299 7.47019C12.8338 7.27339 12.5905 7.17498 12.3001 7.17498C12.0097 7.17498 11.7664 7.27339 11.5703 7.47019C11.3742 7.66699 11.2758 7.91025 11.2751 8.19999C11.2744 8.48972 11.3728 8.73333 11.5703 8.93081C11.7678 9.12829 12.011 9.22635 12.3001 9.22499ZM12.3001 22.4475C12.1805 22.4475 12.0695 22.4389 11.967 22.4219C11.8645 22.4048 11.762 22.3792 11.6595 22.345C9.35322 21.5762 7.51676 20.1539 6.1501 18.0779C4.78343 16.0019 4.1001 13.7685 4.1001 11.3775V6.53436C4.1001 6.10728 4.22412 5.7229 4.47217 5.38124C4.72022 5.03957 5.04036 4.79186 5.4326 4.63811L11.5826 2.33186C11.8218 2.24644 12.0609 2.20374 12.3001 2.20374C12.5393 2.20374 12.7784 2.24644 13.0176 2.33186L19.1676 4.63811C19.5605 4.79186 19.881 5.03957 20.129 5.38124C20.3771 5.7229 20.5008 6.10728 20.5001 6.53436V11.3775C20.5001 13.7692 19.8168 16.003 18.4501 18.0789C17.0834 20.1549 15.247 21.5769 12.9407 22.345C12.8382 22.3792 12.7357 22.4048 12.6332 22.4219C12.5307 22.4389 12.4197 22.4475 12.3001 22.4475ZM12.3001 20.3975C14.0768 19.8337 15.5459 18.7062 16.7076 17.015C17.8693 15.3237 18.4501 13.4446 18.4501 11.3775V6.53436L12.3001 4.22811L6.1501 6.53436V11.3775C6.1501 13.4446 6.73093 15.3237 7.8926 17.015C9.05426 18.7062 10.5234 19.8337 12.3001 20.3975Z" fill="black" fill-opacity="0.6"/>
</svg>
