<svg width="25" height="25" viewBox="0 0 25 25" fill="none" xmlns="http://www.w3.org/2000/svg">
<path d="M4.1001 18.45C4.1001 17.3626 4.53206 16.3198 5.30096 15.5509C6.06986 14.782 7.11271 14.35 8.2001 14.35H16.4001C17.4875 14.35 18.5303 14.782 19.2992 15.5509C20.0681 16.3198 20.5001 17.3626 20.5001 18.45C20.5001 18.9937 20.2841 19.5151 19.8997 19.8996C19.5152 20.284 18.9938 20.5 18.4501 20.5H6.1501C5.6064 20.5 5.08498 20.284 4.70053 19.8996C4.31608 19.5151 4.1001 18.9937 4.1001 18.45Z" stroke="black" stroke-width="1.2" stroke-linejoin="round"/>
<path d="M12.3001 10.25C13.9984 10.25 15.3751 8.87328 15.3751 7.17501C15.3751 5.47673 13.9984 4.10001 12.3001 4.10001C10.6018 4.10001 9.2251 5.47673 9.2251 7.17501C9.2251 8.87328 10.6018 10.25 12.3001 10.25Z" stroke="black" stroke-width="1.2"/>
</svg>
