<svg width="24" height="24" viewBox="0 0 24 24" fill="none" xmlns="http://www.w3.org/2000/svg">
<path d="M4.06121 13.67C4.17809 15.0268 4.6412 16.3309 5.40624 17.4576C6.17128 18.5842 7.21264 19.4957 8.43069 20.1048C9.64874 20.7138 11.0027 21.0001 12.3631 20.9363C13.7234 20.8724 15.0446 20.4605 16.2002 19.74C17.3468 19.0192 18.2933 18.021 18.9522 16.8378C19.6111 15.6545 19.9612 14.3243 19.9702 12.97C19.9702 12.8374 19.9175 12.7102 19.8238 12.6165C19.73 12.5227 19.6028 12.47 19.4702 12.47C19.3376 12.47 19.2104 12.5227 19.1167 12.6165C19.0229 12.7102 18.9702 12.8374 18.9702 12.97C18.9705 14.2487 18.6193 15.5029 17.9551 16.5955C17.2908 17.6881 16.3391 18.5771 15.2037 19.1654C14.0684 19.7537 12.7933 20.0187 11.5176 19.9313C10.2419 19.8439 9.01472 19.4076 7.97021 18.67C6.97965 17.9694 6.18913 17.0224 5.67682 15.9226C5.16451 14.8228 4.94816 13.6083 5.04917 12.3992C5.15018 11.1901 5.56505 10.0284 6.25274 9.02883C6.94044 8.02927 7.87714 7.22653 8.97021 6.70001C10.4413 6.10904 12.0308 5.87266 13.6102 6.01001V7.46001C13.6106 7.55374 13.6374 7.64546 13.6875 7.72471C13.7375 7.80396 13.8088 7.86755 13.8933 7.90821C13.9778 7.94887 14.0719 7.96498 14.1651 7.95469C14.2583 7.9444 14.3467 7.90812 14.4202 7.85001L16.8902 5.90001C16.9504 5.85327 16.9992 5.79338 17.0327 5.72492C17.0662 5.65646 17.0837 5.58124 17.0837 5.50501C17.0837 5.42878 17.0662 5.35356 17.0327 5.28509C16.9992 5.21663 16.9504 5.15675 16.8902 5.11001L14.4002 3.17001C14.3259 3.11429 14.2376 3.08037 14.1451 3.07203C14.0526 3.06369 13.9597 3.08127 13.8766 3.12279C13.7936 3.16432 13.7237 3.22815 13.6749 3.30714C13.6261 3.38613 13.6002 3.47715 13.6002 3.57001V5.01001C12.8902 5.00001 12.1702 4.98001 11.4702 5.03001C10.4134 5.10251 9.38149 5.38459 8.43472 5.8598C7.48795 6.33501 6.6452 6.99387 5.95556 7.79798C5.26592 8.60209 4.74318 9.5354 4.41778 10.5435C4.09238 11.5516 3.97183 12.6144 4.06121 13.67Z" fill="#2D35C9"/>
</svg>
