<svg width="28" height="28" viewBox="0 0 28 28" fill="none" xmlns="http://www.w3.org/2000/svg">
<path d="M9.91677 19.8196C7.15048 19.8196 4.80582 18.8592 2.8828 16.9384C0.960934 15.0187 0 12.6758 0 9.90982C0 7.14383 0.960934 4.80041 2.8828 2.87956C4.80467 0.9587 7.14932 -0.00115194 9.91677 1.03747e-06C12.6842 0.00115401 15.0283 0.961582 16.949 2.88129C18.8697 4.80099 19.8307 7.14383 19.8318 9.90982C19.8318 11.1112 19.619 12.274 19.1933 13.3981C18.7676 14.5223 18.2081 15.4839 17.5148 16.2829L27.7396 26.4988C27.9011 26.6602 27.9876 26.8591 27.9992 27.0955C28.0095 27.3295 27.923 27.5388 27.7396 27.7233C27.555 27.9078 27.3509 28 27.1271 28C26.9033 28 26.6991 27.9078 26.5145 27.7233L16.2915 17.5056C15.4263 18.2424 14.4313 18.8125 13.3066 19.2161C12.1818 19.6196 11.0513 19.8214 9.91504 19.8214M9.91504 18.0919C12.2107 18.0919 14.1493 17.3021 15.7308 15.7225C17.3112 14.143 18.1014 12.2054 18.1014 9.90982C18.1014 7.61425 17.3118 5.67725 15.7325 4.09883C14.1533 2.5204 12.2153 1.73062 9.9185 1.72946C7.62172 1.72946 5.68312 2.51925 4.10271 4.09883C2.52231 5.6784 1.73153 7.6154 1.73037 9.90982C1.72922 12.2042 2.51942 14.1412 4.10098 15.7208C5.68254 17.3004 7.62056 18.0902 9.91504 18.0902" fill="black"/>
</svg>
